<?xml version="1.0" standalone="no"?>
<!DOCTYPE svg PUBLIC "-//W3C//DTD SVG 20010904//EN"
 "http://www.w3.org/TR/2001/REC-SVG-20010904/DTD/svg10.dtd">
<svg version="1.0" xmlns="http://www.w3.org/2000/svg"
 width="860.000000pt" height="849.000000pt" viewBox="0 0 860.000000 849.000000"
 preserveAspectRatio="xMidYMid meet">

<g transform="translate(0.000000,849.000000) scale(0.100000,-0.100000)"
fill="#ffffff" stroke="none">
<path d="M4640 8073 c-375 -28 -885 -115 -1269 -218 -527 -141 -1084 -385
-1471 -645 -206 -138 -336 -244 -519 -423 -610 -598 -937 -1308 -964 -2097 -8
-230 28 -572 69 -657 38 -78 116 -129 162 -104 31 16 40 61 47 236 38 954 327
1695 885 2268 354 365 756 621 1235 787 132 46 317 90 375 90 40 0 66 -20 57
-45 -6 -15 -19 -21 -187 -90 -529 -217 -839 -380 -1044 -549 -98 -80 -341
-323 -428 -426 -308 -365 -509 -772 -613 -1235 -52 -231 -59 -329 -59 -805 0
-587 26 -917 90 -1139 81 -280 248 -614 402 -806 91 -113 298 -320 427 -428
268 -225 532 -401 805 -538 233 -117 353 -153 727 -219 169 -30 231 -44 241
-57 16 -22 15 -35 -2 -59 -12 -16 -29 -20 -112 -23 -291 -10 -813 131 -1229
334 -269 131 -472 280 -730 540 -170 170 -261 275 -395 455 -144 192 -197 255
-233 275 -31 16 -35 16 -64 1 -66 -34 -69 -141 -8 -316 87 -251 244 -480 514
-751 333 -332 605 -504 1046 -661 320 -113 631 -174 1013 -199 517 -33 1231
93 1800 317 545 214 1075 578 1400 961 168 199 391 522 519 753 182 330 297
651 359 1006 24 133 27 183 31 461 14 834 -99 1497 -322 1903 -64 116 -149
251 -211 336 -256 350 -649 660 -1139 899 -297 145 -469 198 -696 215 -246 19
-319 52 -319 145 0 39 33 50 140 48 110 -1 403 -50 535 -88 436 -126 1154
-553 1480 -880 173 -173 310 -366 434 -610 149 -291 257 -635 321 -1020 42
-255 50 -347 57 -630 25 -1043 -239 -1871 -812 -2550 -265 -314 -590 -583
-1061 -879 -112 -70 -151 -100 -168 -128 -38 -68 4 -90 129 -69 254 45 533
213 1014 613 163 136 428 392 565 548 331 375 546 752 660 1155 64 226 119
516 141 745 56 588 43 1068 -40 1452 -112 521 -325 1026 -603 1433 -232 340
-546 648 -867 849 -329 207 -779 367 -1310 465 -226 42 -615 68 -805 54z m504
-2727 c17 -16 42 -80 81 -202 31 -98 66 -206 79 -239 l22 -60 364 -92 c338
-84 438 -115 735 -228 191 -72 295 -143 295 -201 0 -38 -37 -102 -68 -118 -18
-9 -89 -19 -193 -26 -509 -34 -1312 -118 -1774 -186 -331 -48 -910 -160 -1700
-329 -93 -20 -243 -52 -332 -71 -90 -19 -253 -54 -364 -79 -110 -25 -220 -45
-245 -45 -52 0 -84 26 -84 69 0 37 63 97 235 221 291 211 568 378 914 554
l189 96 147 257 c80 142 158 270 173 285 23 22 79 41 342 113 362 100 635 175
905 250 220 61 246 64 279 31z"/>
<path d="M411 3592 c-47 -23 -67 -55 -87 -132 -28 -111 3 -365 61 -495 41 -93
121 -153 238 -177 49 -10 61 -10 92 5 50 24 59 54 46 152 -6 44 -15 145 -21
223 -12 164 -30 263 -58 318 -25 47 -77 99 -115 113 -43 16 -118 13 -156 -7z"/>
</g>
</svg>
