<svg version="1.1" id="Layer_1" xmlns:x="ns_extend;" xmlns:i="ns_ai;" xmlns:graph="ns_graphs;" xmlns="http://www.w3.org/2000/svg" xmlns:xlink="http://www.w3.org/1999/xlink" x="0px" y="0px" viewBox="0 0 89.4 84.2" style="enable-background:new 0 0 89.4 84.2;" xml:space="preserve">
 <style type="text/css">
  .st0{fill:#DA1A32;}
	.st1{fill:#FFFFFF;}
 </style>
 <metadata>
  <sfw xmlns="ns_sfw;">
   <slices>
   </slices>
   <sliceSourceBounds bottomLeftOrigin="true" height="84.2" width="89.4" x="30.1" y="-241.5">
   </sliceSourceBounds>
  </sfw>
 </metadata>
 <g>
  <path class="st0" d="M4.9,54.6C5,56,5,57,5.2,58c0.1,0.5-0.2,1.6-1.6,1.3c-0.7-0.1-1.5-0.4-2-0.9c-0.6-0.5-0.9-1.2-1.1-2
		c-0.5-1.7-1.5-6.6,1.6-6.6c0.7,0,1.3,0.3,1.7,0.8C4.6,51.8,4.8,53.3,4.9,54.6 M89,33.8c0,0-2.9-24.6-24.1-31.3
		C53.1-1.2,47.2-0.1,40,1.2c-8.5,1.5-18.7,5.1-26,11.4C9,16.8,4,23.3,2,31.4C1,35.8,0.9,40,1.7,44.6c0.3,1.7,2.7,3.2,2.7,0.5
		C4.6,14.8,29.6,9.2,30.4,9c0.3-0.1,0.6-0.1,0.9-0.2c0.4-0.1,0.8-0.2,1.2-0.1c0.2,0,0.4,0.4,0.1,0.6c-2,1-9.8,3.6-14,7.3
		C14.4,20.4,8.8,26.4,7,36.9c-0.3,1.8-0.6,11,0.3,17.5c0.5,3.7,3.1,8.8,4.7,11c4.6,5.9,12.5,10.8,16.8,12.4c2.7,1,6.1,1.3,7.8,1.7
		c0.6,0.2,0.5,0.9-0.1,1c-2.7,0.4-9.3-1.1-14.8-3.7c-4.1-2-6.9-4.8-9.7-7.8c-3-3.3-4.7-6.7-5.8-6.5c-1.9,0.4-0.3,4.3,0.6,5.9
		C9.6,73.4,15.2,78,18,79.5c8.7,4.8,17.6,4.9,21.6,4.5c17.2-1.4,27.7-9.7,32.4-16.2c2.7-3.8,8.9-11.8,8.7-23.4
		c0-1.9,0.2-14.8-4.1-21.5c-1-1.5-3.9-7.8-14.8-13.2c-0.8-0.4-4.6-2.3-7.6-2.4c-1.3,0-3.9-0.2-3.6-1.7c0.2-1.1,6.5,0.4,7.2,0.5
		c4.6,1.3,10.5,4.8,14.5,7.9C85,23.7,83.7,44.2,83.7,44.2c-0.6,21.7-13.2,30.9-22.4,36.4c-0.2,0.1-0.8,1-0.6,1.3
		c0.2,0.3,0.6,0.3,1.1,0.2c3.5-0.4,6.9-2.9,9.8-5.3c15.1-11.8,15.8-21,16.7-24.5C89.6,47.2,89.6,37,89,33.8">
  </path>
  <path class="st1" d="M66,39.7c-0.4-0.2-0.8-0.3-1.2-0.4c-1.2-0.5-4-1.2-6.3-1.8c-1.3-0.3-2.6-0.7-2.8-0.8c-0.2-0.4-0.8-2.7-1.1-3.9
		c-0.1-0.6-0.2-1.1-0.3-1.3c-0.2-0.7-0.5-1.1-1.2-1h0c-0.2,0-3.6,0.9-9.1,2.3c-3.7,1-7.5,1.9-7.8,2c-0.3,0-0.5,0.2-2.9,4
		c-0.7,1.1-1.6,2.6-1.8,2.7c-0.1,0-0.6,0.3-1.2,0.6c-1.5,0.7-4.4,2-6.8,3.4c-2.7,1.6-7.9,4.9-8.3,5.6c-0.2,0.3-0.2,0.6,0,0.8
		c0.2,0.3,0.6,0.4,1.1,0.4c0.1,0,0.2,0,0.3-0.1c0.5-0.1,17-3.4,26.4-5c2.4-0.4,5.3-0.8,8.8-1.2c8.6-0.9,17.3-1.4,17.9-1.4
		c0.5,0,1-0.2,1.4-0.6c0.3-0.3,0.4-0.8,0.4-1.2C71.6,42,69.8,41.2,66,39.7">
  </path>
 </g>
</svg>